<?xml version="1.0" encoding="UTF-8"?>
<!DOCTYPE svg PUBLIC "-//W3C//DTD SVG 1.1//EN" "http://www.w3.org/Graphics/SVG/1.1/DTD/svg11.dtd">
<svg xmlns="http://www.w3.org/2000/svg" version="1.1" width="632px" height="628px" style="shape-rendering:geometricPrecision; text-rendering:geometricPrecision; image-rendering:optimizeQuality; fill-rule:evenodd; clip-rule:evenodd" xmlns:xlink="http://www.w3.org/1999/xlink">
<g><path style="opacity:1" fill="#799a00" d="M 299.5,73.5 C 300.08,75.7488 301.413,77.4154 303.5,78.5C 305.274,81.9265 306.274,85.5931 306.5,89.5C 306.5,90.5 306.5,91.5 306.5,92.5C 305.073,108.913 302.907,125.246 300,141.5C 298.752,154.139 297.918,166.805 297.5,179.5C 298.363,194.286 300.196,208.953 303,223.5C 303.744,232.824 304.244,242.157 304.5,251.5C 304.847,274.204 304.18,296.87 302.5,319.5C 301.613,328.801 301.279,338.134 301.5,347.5C 300.082,361.396 298.416,375.396 296.5,389.5C 294.801,393.954 293.467,398.62 292.5,403.5C 290.886,408.086 289.219,412.753 287.5,417.5C 287.5,417.833 287.5,418.167 287.5,418.5C 285.621,419.341 283.621,419.675 281.5,419.5C 277.316,419.408 273.983,417.741 271.5,414.5C 271.118,410.668 269.785,407.335 267.5,404.5C 266.652,400.773 265.652,397.107 264.5,393.5C 265.494,390.103 265.16,386.77 263.5,383.5C 263.5,382.833 263.5,382.167 263.5,381.5C 263.5,375.5 263.5,369.5 263.5,363.5C 263.5,361.5 263.5,359.5 263.5,357.5C 265.221,348.348 266.554,339.014 267.5,329.5C 267.5,328.167 267.5,326.833 267.5,325.5C 268.15,323.565 268.483,321.565 268.5,319.5C 273.291,296.053 276.624,272.386 278.5,248.5C 278.115,243.113 276.781,238.113 274.5,233.5C 274.435,230.572 273.768,227.905 272.5,225.5C 270.377,218.896 268.377,212.23 266.5,205.5C 265.513,208.768 265.18,212.102 265.5,215.5C 264.539,217.265 264.205,219.265 264.5,221.5C 261.887,238.166 258.72,254.833 255,271.5C 249.705,282.146 242.538,291.146 233.5,298.5C 232.292,299.234 230.959,299.567 229.5,299.5C 226.167,299.5 222.833,299.5 219.5,299.5C 216.848,299.59 214.515,298.924 212.5,297.5C 212.027,296.094 211.027,295.427 209.5,295.5C 209.167,294.5 208.5,293.833 207.5,293.5C 206.974,291.77 205.974,290.436 204.5,289.5C 204.5,289.167 204.5,288.833 204.5,288.5C 204.029,286.421 203.363,284.421 202.5,282.5C 199.885,268.499 199.885,254.499 202.5,240.5C 200.664,235.458 198.997,230.458 197.5,225.5C 197.741,223.102 197.074,221.102 195.5,219.5C 194.226,217.007 193.56,214.341 193.5,211.5C 192.74,209.015 191.74,209.015 190.5,211.5C 188.875,217.381 186.875,223.047 184.5,228.5C 183.596,229.209 183.263,230.209 183.5,231.5C 181.659,236.357 179.992,241.357 178.5,246.5C 176.485,252.379 173.985,258.046 171,263.5C 161.049,275.788 149.549,286.288 136.5,295C 127.281,299.537 117.614,301.037 107.5,299.5C 105.95,298.559 104.284,297.893 102.5,297.5C 100.597,297.204 98.9303,296.537 97.5,295.5C 96.1007,294.11 94.4341,293.11 92.5,292.5C 92.0269,291.094 91.0269,290.427 89.5,290.5C 83.0212,282.545 78.3545,273.545 75.5,263.5C 75.5,256.167 75.5,248.833 75.5,241.5C 75.5,240.833 75.5,240.167 75.5,239.5C 77.2798,238.01 77.9465,236.01 77.5,233.5C 77.8404,228.11 78.507,222.777 79.5,217.5C 79.6655,213.486 79.4988,209.486 79,205.5C 76.3724,204.723 73.8724,203.723 71.5,202.5C 69.5956,202.262 68.2623,201.262 67.5,199.5C 66.7377,197.738 65.4044,196.738 63.5,196.5C 62.9202,194.251 61.5869,192.585 59.5,191.5C 57.1667,189.833 55.1667,187.833 53.5,185.5C 53.573,183.973 52.9063,182.973 51.5,182.5C 48.6692,179.014 47.0026,175.014 46.5,170.5C 45.6586,168.621 45.3253,166.621 45.5,164.5C 46.412,162.405 47.5787,160.405 49,158.5C 49.8159,157.177 50.9826,156.511 52.5,156.5C 54.9674,156.245 56.9674,155.245 58.5,153.5C 62.1586,151.296 66.1586,149.962 70.5,149.5C 77.175,149.666 83.8417,149.5 90.5,149C 91.056,148.617 91.3893,148.117 91.5,147.5C 96.5,147.5 101.5,147.5 106.5,147.5C 108.915,148.814 111.748,149.481 115,149.5C 118.021,149.498 120.854,149.164 123.5,148.5C 124.391,149.11 125.391,149.443 126.5,149.5C 126.611,150.117 126.944,150.617 127.5,151C 131.027,151.808 134.36,151.641 137.5,150.5C 145.753,151.956 152.42,155.956 157.5,162.5C 157.5,165.833 157.5,169.167 157.5,172.5C 157.5,172.833 157.5,173.167 157.5,173.5C 155.844,175.46 154.177,177.46 152.5,179.5C 142.078,186.711 131.078,192.877 119.5,198C 118.643,198.689 117.977,199.522 117.5,200.5C 120.854,203.021 123.688,206.021 126,209.5C 125.871,218.197 124.371,226.697 121.5,235C 121.667,236.5 122.5,237.333 124,237.5C 132.443,233.729 139.776,228.395 146,221.5C 154.906,208.427 164.74,196.094 175.5,184.5C 177.167,183.5 178.5,182.167 179.5,180.5C 180.833,179.5 180.833,178.5 179.5,177.5C 178.829,176.153 178.829,174.986 179.5,174C 178.207,173.51 176.873,173.343 175.5,173.5C 175.573,171.973 174.906,170.973 173.5,170.5C 172.599,169.71 171.932,168.71 171.5,167.5C 171.335,163.818 171.501,160.152 172,156.5C 173.481,155.529 174.315,154.196 174.5,152.5C 174.427,150.973 175.094,149.973 176.5,149.5C 178.914,148.089 180.581,146.089 181.5,143.5C 181.833,142.5 182.5,141.833 183.5,141.5C 186.089,140.581 188.089,138.914 189.5,136.5C 189.973,135.094 190.973,134.427 192.5,134.5C 194.027,134.573 195.027,133.906 195.5,132.5C 198.647,132.263 201.647,131.43 204.5,130C 208.486,129.501 212.486,129.334 216.5,129.5C 218.17,129.751 219.67,130.418 221,131.5C 223.157,133.817 224.657,136.484 225.5,139.5C 225.336,142.187 225.503,144.854 226,147.5C 226.278,148.416 226.778,149.082 227.5,149.5C 228.319,151.772 228.985,154.106 229.5,156.5C 229.328,157.492 229.662,158.158 230.5,158.5C 230.833,159.167 231.167,159.833 231.5,160.5C 234.175,174.878 237.175,189.211 240.5,203.5C 244.987,191.709 248.654,179.709 251.5,167.5C 252.309,165.972 252.976,164.306 253.5,162.5C 253.833,160.5 254.167,158.5 254.5,156.5C 254.263,155.209 254.596,154.209 255.5,153.5C 257.461,151.68 257.794,149.68 256.5,147.5C 256.833,146.833 257.167,146.167 257.5,145.5C 259.042,137.225 259.709,128.725 259.5,120C 259.5,113.657 259.166,107.491 258.5,101.5C 258.833,100.833 259.167,100.167 259.5,99.5C 261.255,95.0032 262.588,90.3365 263.5,85.5C 263.833,85.5 264.167,85.5 264.5,85.5C 266.508,84.3839 267.508,82.5506 267.5,80C 266.571,76.1919 266.571,72.3586 267.5,68.5C 268.906,68.0269 269.573,67.0269 269.5,65.5C 270.874,63.0412 273.04,62.0412 276,62.5C 285.73,62.6202 293.564,66.2869 299.5,73.5 Z M 190.5,211.5 C 191.5,211.5 192.5,211.5 193.5,211.5C 193.56,214.341 194.226,217.007 195.5,219.5C 192.032,223.018 188.532,226.684 185,230.5C 184.536,229.906 184.369,229.239 184.5,228.5C 186.875,223.047 188.875,217.381 190.5,211.5 Z"/></g>
<g><path style="opacity:0.855" fill="#262f05" d="M 269.5,65.5 C 269.573,67.0269 268.906,68.0269 267.5,68.5C 267.427,66.9731 268.094,65.9731 269.5,65.5 Z"/></g>
<g><path style="opacity:0.903" fill="#5e7702" d="M 267.5,68.5 C 266.571,72.3586 266.571,76.1919 267.5,80C 267.508,82.5506 266.508,84.3839 264.5,85.5C 265.281,80.5824 265.781,75.5824 266,70.5C 266.278,69.5842 266.778,68.9175 267.5,68.5 Z"/></g>
<g><path style="opacity:0.706" fill="#282f05" d="M 299.5,73.5 C 301.587,74.5846 302.92,76.2512 303.5,78.5C 301.413,77.4154 300.08,75.7488 299.5,73.5 Z"/></g>
<g><path style="opacity:0.195" fill="#455402" d="M 263.5,85.5 C 262.588,90.3365 261.255,95.0032 259.5,99.5C 259.61,94.3784 260.944,89.7118 263.5,85.5 Z"/></g>
<g><path style="opacity:0.498" fill="#586066" d="M 306.5,92.5 C 306.833,92.5 307.167,92.5 307.5,92.5C 307.5,93.1667 307.5,93.8333 307.5,94.5C 308.031,96.5441 309.198,98.2107 311,99.5C 321.431,100.232 328.097,105.899 331,116.5C 331.667,123.833 331.667,131.167 331,138.5C 324.776,167.518 322.443,196.851 324,226.5C 328.103,241.834 330.437,257.5 331,273.5C 331.422,317.934 329.422,362.267 325,406.5C 323.155,419.241 319.989,431.575 315.5,443.5C 313.133,445.395 310.466,445.895 307.5,445C 305.47,443.104 303.803,440.937 302.5,438.5C 297.51,422.563 295.51,406.23 296.5,389.5C 298.416,375.396 300.082,361.396 301.5,347.5C 307.478,320.979 309.978,293.979 309,266.5C 307.508,263.505 306.341,260.505 305.5,257.5C 305.795,255.265 305.461,253.265 304.5,251.5C 304.244,242.157 303.744,232.824 303,223.5C 300.196,208.953 298.363,194.286 297.5,179.5C 297.918,166.805 298.752,154.139 300,141.5C 302.907,125.246 305.073,108.913 306.5,92.5 Z"/></g>
<g><path style="opacity:0.765" fill="#293203" d="M 258.5,101.5 C 259.166,107.491 259.5,113.657 259.5,120C 259.709,128.725 259.042,137.225 257.5,145.5C 258.351,130.851 258.685,116.184 258.5,101.5 Z"/></g>
<g><path style="opacity:0.467" fill="#4a5157" d="M 307.5,94.5 C 321.823,95.3174 330.99,102.651 335,116.5C 335.5,123.492 335.666,130.492 335.5,137.5C 326.949,165.393 323.782,194.059 326,223.5C 326.948,230.422 328.448,237.088 330.5,243.5C 330.5,243.833 330.5,244.167 330.5,244.5C 333.043,283.161 333.043,321.827 330.5,360.5C 329.167,377.166 327.833,393.833 326.5,410.5C 326.354,414.519 326.021,418.519 325.5,422.5C 322.543,429.534 320.043,436.867 318,444.5C 317.535,445.931 316.701,447.097 315.5,448C 308.775,449.634 303.775,447.468 300.5,441.5C 299.313,433.044 296.813,425.044 293,417.5C 292.501,412.845 292.334,408.179 292.5,403.5C 293.467,398.62 294.801,393.954 296.5,389.5C 295.51,406.23 297.51,422.563 302.5,438.5C 303.803,440.937 305.47,443.104 307.5,445C 310.466,445.895 313.133,445.395 315.5,443.5C 319.989,431.575 323.155,419.241 325,406.5C 329.422,362.267 331.422,317.934 331,273.5C 330.437,257.5 328.103,241.834 324,226.5C 322.443,196.851 324.776,167.518 331,138.5C 331.667,131.167 331.667,123.833 331,116.5C 328.097,105.899 321.431,100.232 311,99.5C 309.198,98.2107 308.031,96.5441 307.5,94.5 Z"/></g>
<g><path style="opacity:0.151" fill="#212427" d="M 307.5,92.5 C 318.538,92.9362 327.705,97.2696 335,105.5C 339.812,121.786 339.312,137.786 333.5,153.5C 334.073,148.153 334.74,142.82 335.5,137.5C 335.666,130.492 335.5,123.492 335,116.5C 330.99,102.651 321.823,95.3174 307.5,94.5C 307.5,93.8333 307.5,93.1667 307.5,92.5 Z"/></g>
<g><path style="opacity:0.951" fill="#3a4805" d="M 216.5,129.5 C 212.486,129.334 208.486,129.501 204.5,130C 201.647,131.43 198.647,132.263 195.5,132.5C 202.176,128.224 209.176,127.224 216.5,129.5 Z"/></g>
<g><path style="opacity:0.745" fill="#212c08" d="M 195.5,132.5 C 195.027,133.906 194.027,134.573 192.5,134.5C 192.973,133.094 193.973,132.427 195.5,132.5 Z"/></g>
<g><path style="opacity:0.886" fill="#2a3508" d="M 189.5,136.5 C 188.089,138.914 186.089,140.581 183.5,141.5C 184.911,139.086 186.911,137.419 189.5,136.5 Z"/></g>
<g><path style="opacity:0.667" fill="#1c2303" d="M 181.5,143.5 C 180.581,146.089 178.914,148.089 176.5,149.5C 177.419,146.911 179.086,144.911 181.5,143.5 Z"/></g>
<g><path style="opacity:1" fill="#485a03" d="M 225.5,139.5 C 226.785,142.589 227.451,145.922 227.5,149.5C 226.778,149.082 226.278,148.416 226,147.5C 225.503,144.854 225.336,142.187 225.5,139.5 Z"/></g>
<g><path style="opacity:0.493" fill="#576c00" d="M 106.5,147.5 C 112.212,147.313 117.879,147.646 123.5,148.5C 120.854,149.164 118.021,149.498 115,149.5C 111.748,149.481 108.915,148.814 106.5,147.5 Z"/></g>
<g><path style="opacity:0.998" fill="#3a4603" d="M 91.5,147.5 C 91.3893,148.117 91.056,148.617 90.5,149C 83.8417,149.5 77.175,149.666 70.5,149.5C 77.3365,148.631 84.3365,147.964 91.5,147.5 Z"/></g>
<g><path style="opacity:1" fill="#3b4b02" d="M 126.5,149.5 C 130.127,149.301 133.794,149.634 137.5,150.5C 134.36,151.641 131.027,151.808 127.5,151C 126.944,150.617 126.611,150.117 126.5,149.5 Z"/></g>
<g><path style="opacity:0.98" fill="#384005" d="M 256.5,147.5 C 257.794,149.68 257.461,151.68 255.5,153.5C 255.833,151.5 256.167,149.5 256.5,147.5 Z"/></g>
<g><path style="opacity:0.875" fill="#3b4e06" d="M 58.5,153.5 C 56.9674,155.245 54.9674,156.245 52.5,156.5C 54.0326,154.755 56.0326,153.755 58.5,153.5 Z"/></g>
<g><path style="opacity:0.073" fill="#0a0c0a" d="M 254.5,156.5 C 254.167,158.5 253.833,160.5 253.5,162.5C 251.717,161.886 250.384,160.72 249.5,159C 243.187,157.27 236.853,157.103 230.5,158.5C 229.662,158.158 229.328,157.492 229.5,156.5C 237.484,152.308 245.318,152.641 253,157.5C 253.383,156.944 253.883,156.611 254.5,156.5 Z"/></g>
<g><path style="opacity:0.261" fill="#303539" d="M 253.5,162.5 C 252.976,164.306 252.309,165.972 251.5,167.5C 251.489,165.983 250.823,164.816 249.5,164C 243.737,161.957 237.737,160.79 231.5,160.5C 231.167,159.833 230.833,159.167 230.5,158.5C 236.853,157.103 243.187,157.27 249.5,159C 250.384,160.72 251.717,161.886 253.5,162.5 Z"/></g>
<g><path style="opacity:0.004" fill="#0a0e00" d="M 158.5,161.5 C 159.833,162.167 159.833,162.167 158.5,161.5 Z"/></g>
<g><path style="opacity:0.925" fill="#2e3907" d="M 174.5,152.5 C 174.315,154.196 173.481,155.529 172,156.5C 171.501,160.152 171.335,163.818 171.5,167.5C 170.776,165.782 170.109,163.948 169.5,162C 169.576,157.908 171.243,154.741 174.5,152.5 Z"/></g>
<g><path style="opacity:0.498" fill="#586063" d="M 231.5,160.5 C 237.737,160.79 243.737,161.957 249.5,164C 250.823,164.816 251.489,165.983 251.5,167.5C 248.654,179.709 244.987,191.709 240.5,203.5C 237.175,189.211 234.175,174.878 231.5,160.5 Z"/></g>
<g><path style="opacity:1" fill="#415108" d="M 157.5,162.5 C 157.833,162.5 158.167,162.5 158.5,162.5C 160.109,166.143 159.776,169.476 157.5,172.5C 157.5,169.167 157.5,165.833 157.5,162.5 Z"/></g>
<g><path style="opacity:0.408" fill="#2a3707" d="M 45.5,164.5 C 45.3253,166.621 45.6586,168.621 46.5,170.5C 45.1779,170.33 44.0113,170.663 43,171.5C 42.5,171 42,170.5 41.5,170C 43.4653,168.544 44.7987,166.71 45.5,164.5 Z"/></g>
<g><path style="opacity:0.016" fill="#181c02" d="M 173.5,170.5 C 174.906,170.973 175.573,171.973 175.5,173.5C 174.094,173.027 173.427,172.027 173.5,170.5 Z"/></g>
<g><path style="opacity:1" fill="#4b5b0d" d="M 175.5,173.5 C 176.873,173.343 178.207,173.51 179.5,174C 178.829,174.986 178.829,176.153 179.5,177.5C 177.833,176.5 176.5,175.167 175.5,173.5 Z"/></g>
<g><path style="opacity:0.067" fill="#121411" d="M 157.5,173.5 C 164.767,175.364 172.101,177.697 179.5,180.5C 178.5,182.167 177.167,183.5 175.5,184.5C 174.77,182.955 173.437,182.122 171.5,182C 165.157,181.165 158.824,180.331 152.5,179.5C 154.177,177.46 155.844,175.46 157.5,173.5 Z"/></g>
<g><path style="opacity:0.735" fill="#586e00" d="M 424.5,181.5 C 424.833,182.167 425.167,182.833 425.5,183.5C 423.5,183.5 421.5,183.5 419.5,183.5C 419.666,188.844 419.499,194.177 419,199.5C 417.549,201.464 415.716,202.797 413.5,203.5C 414.458,202.038 415.624,200.705 417,199.5C 417.499,193.509 417.666,187.509 417.5,181.5C 419.833,181.5 422.167,181.5 424.5,181.5 Z"/></g>
<g><path style="opacity:0.6" fill="#394903" d="M 424.5,181.5 C 431.609,181.849 438.609,182.849 445.5,184.5C 444.903,185.139 444.07,185.472 443,185.5C 437.296,183.816 431.463,183.149 425.5,183.5C 425.167,182.833 424.833,182.167 424.5,181.5 Z"/></g>
<g><path style="opacity:0.008" fill="#111700" d="M 51.5,182.5 C 52.9063,182.973 53.573,183.973 53.5,185.5C 52.0937,185.027 51.427,184.027 51.5,182.5 Z"/></g>
<g><path style="opacity:0.498" fill="#576063" d="M 152.5,179.5 C 158.824,180.331 165.157,181.165 171.5,182C 173.437,182.122 174.77,182.955 175.5,184.5C 164.74,196.094 154.906,208.427 146,221.5C 139.776,228.395 132.443,233.729 124,237.5C 122.5,237.333 121.667,236.5 121.5,235C 124.371,226.697 125.871,218.197 126,209.5C 123.688,206.021 120.854,203.021 117.5,200.5C 117.977,199.522 118.643,198.689 119.5,198C 131.078,192.877 142.078,186.711 152.5,179.5 Z"/></g>
<g><path style="opacity:1" fill="#799901" d="M 425.5,183.5 C 431.463,183.149 437.296,183.816 443,185.5C 444.07,185.472 444.903,185.139 445.5,184.5C 446.391,185.11 447.391,185.443 448.5,185.5C 451.685,187.568 455.352,188.901 459.5,189.5C 466.433,191.296 472.433,194.63 477.5,199.5C 478.265,202.096 478.599,204.763 478.5,207.5C 478.725,212.248 478.225,216.915 477,221.5C 474.062,230.352 470.895,239.019 467.5,247.5C 478.843,249.165 489.176,253.165 498.5,259.5C 499.167,259.833 499.833,260.167 500.5,260.5C 500.842,261.338 501.508,261.672 502.5,261.5C 503.833,263.5 505.5,265.167 507.5,266.5C 508.167,266.5 508.5,266.833 508.5,267.5C 510.862,270.192 513.196,272.859 515.5,275.5C 515.328,276.492 515.662,277.158 516.5,277.5C 522.099,287.211 521.765,296.711 515.5,306C 512.518,306.498 509.518,306.665 506.5,306.5C 505.5,306.5 504.5,306.5 503.5,306.5C 502.081,305.549 500.415,305.216 498.5,305.5C 494.385,304.057 490.052,303.057 485.5,302.5C 483.596,302.262 482.262,301.262 481.5,299.5C 480.833,298.167 480.167,296.833 479.5,295.5C 479.443,294.391 479.11,293.391 478.5,292.5C 473.669,286.821 469.835,280.488 467,273.5C 463.621,268.967 460.121,264.633 456.5,260.5C 447.021,272.146 437.355,283.646 427.5,295C 422.732,299.3 417.399,302.466 411.5,304.5C 410.833,304.833 410.167,305.167 409.5,305.5C 406.167,305.5 402.833,305.5 399.5,305.5C 395.015,305.283 391.015,303.783 387.5,301C 381.85,291.609 379.683,281.443 381,270.5C 381.889,262.876 383.722,255.543 386.5,248.5C 388.074,246.898 388.741,244.898 388.5,242.5C 390.05,237.07 392.384,232.07 395.5,227.5C 396.906,227.027 397.573,226.027 397.5,224.5C 398.906,224.027 399.573,223.027 399.5,221.5C 399.75,219.326 400.75,217.659 402.5,216.5C 403.906,216.027 404.573,215.027 404.5,213.5C 406.262,212.738 407.262,211.404 407.5,209.5C 409.167,207.167 411.167,205.167 413.5,203.5C 415.716,202.797 417.549,201.464 419,199.5C 419.499,194.177 419.666,188.844 419.5,183.5C 421.5,183.5 423.5,183.5 425.5,183.5 Z"/></g>
<g><path style="opacity:0.945" fill="#475705" d="M 448.5,185.5 C 452.532,186.082 456.199,187.416 459.5,189.5C 455.352,188.901 451.685,187.568 448.5,185.5 Z"/></g>
<g><path style="opacity:0.016" fill="#3a4906" d="M 59.5,191.5 C 61.5869,192.585 62.9202,194.251 63.5,196.5C 61.4131,195.415 60.0798,193.749 59.5,191.5 Z"/></g>
<g><path style="opacity:0.863" fill="#35420a" d="M 63.5,196.5 C 65.4044,196.738 66.7377,197.738 67.5,199.5C 65.5956,199.262 64.2623,198.262 63.5,196.5 Z"/></g>
<g><path style="opacity:0.372" fill="#393f44" d="M 335.5,137.5 C 334.74,142.82 334.073,148.153 333.5,153.5C 329,178.649 327.667,203.983 329.5,229.5C 329.54,234.193 329.873,238.859 330.5,243.5C 328.448,237.088 326.948,230.422 326,223.5C 323.782,194.059 326.949,165.393 335.5,137.5 Z"/></g>
<g><path style="opacity:0.514" fill="#3d4e06" d="M 477.5,199.5 C 478.833,199.5 479.5,200.167 479.5,201.5C 479.5,203.167 479.5,204.833 479.5,206.5C 479.5,206.833 479.5,207.167 479.5,207.5C 479.167,207.5 478.833,207.5 478.5,207.5C 478.599,204.763 478.265,202.096 477.5,199.5 Z"/></g>
<g><path style="opacity:0.012" fill="#060707" d="M 479.5,201.5 C 492.486,203.745 503.986,209.078 514,217.5C 516.206,233.181 513.706,248.348 506.5,263C 506.989,264.138 507.322,265.305 507.5,266.5C 505.5,265.167 503.833,263.5 502.5,261.5C 505.713,255.734 508.547,250.4 511,245.5C 511.667,237.167 511.667,228.833 511,220.5C 501.916,212.853 491.416,208.186 479.5,206.5C 479.5,204.833 479.5,203.167 479.5,201.5 Z"/></g>
<g><path style="opacity:0.021" fill="#0d1009" d="M 71.5,202.5 C 73.8724,203.723 76.3724,204.723 79,205.5C 79.4988,209.486 79.6655,213.486 79.5,217.5C 78.5255,216.365 77.3588,215.365 76,214.5C 74.7617,210.365 73.2617,206.365 71.5,202.5 Z"/></g>
<g><path style="opacity:0.208" fill="#141c00" d="M 193.5,211.5 C 192.5,211.5 191.5,211.5 190.5,211.5C 191.74,209.015 192.74,209.015 193.5,211.5 Z"/></g>
<g><path style="opacity:0.824" fill="#242c03" d="M 407.5,209.5 C 407.262,211.404 406.262,212.738 404.5,213.5C 404.738,211.596 405.738,210.262 407.5,209.5 Z"/></g>
<g><path style="opacity:0.498" fill="#586064" d="M 478.5,207.5 C 478.833,207.5 479.167,207.5 479.5,207.5C 479.937,209.074 480.937,210.241 482.5,211C 491.57,212.445 499.403,216.278 506,222.5C 507.512,235.816 505.012,248.149 498.5,259.5C 489.176,253.165 478.843,249.165 467.5,247.5C 470.895,239.019 474.062,230.352 477,221.5C 478.225,216.915 478.725,212.248 478.5,207.5 Z"/></g>
<g><path style="opacity:0.647" fill="#2f3807" d="M 404.5,213.5 C 404.573,215.027 403.906,216.027 402.5,216.5C 402.427,214.973 403.094,213.973 404.5,213.5 Z"/></g>
<g><path style="opacity:0.62" fill="#324204" d="M 399.5,221.5 C 399.573,223.027 398.906,224.027 397.5,224.5C 397.427,222.973 398.094,221.973 399.5,221.5 Z"/></g>
<g><path style="opacity:0.4" fill="#3d4347" d="M 479.5,207.5 C 482.262,208.38 484.929,209.546 487.5,211C 490.914,211.297 494.247,211.964 497.5,213C 500.598,214.816 503.598,216.816 506.5,219C 507.701,219.903 508.535,221.069 509,222.5C 509.667,229.5 509.667,236.5 509,243.5C 507.011,249.665 504.177,255.332 500.5,260.5C 499.833,260.167 499.167,259.833 498.5,259.5C 505.012,248.149 507.512,235.816 506,222.5C 499.403,216.278 491.57,212.445 482.5,211C 480.937,210.241 479.937,209.074 479.5,207.5 Z"/></g>
<g><path style="opacity:0.18" fill="#20251e" d="M 272.5,225.5 C 272.017,227.87 270.851,228.537 269,227.5C 267.497,223.468 266.33,219.468 265.5,215.5C 265.18,212.102 265.513,208.768 266.5,205.5C 268.377,212.23 270.377,218.896 272.5,225.5 Z"/></g>
<g><path style="opacity:0.863" fill="#323d07" d="M 397.5,224.5 C 397.573,226.027 396.906,227.027 395.5,227.5C 395.427,225.973 396.094,224.973 397.5,224.5 Z"/></g>
<g><path style="opacity:0.173" fill="#191c1a" d="M 195.5,219.5 C 197.074,221.102 197.741,223.102 197.5,225.5C 193.684,229.761 189.851,234.094 186,238.5C 185.667,239.5 185.333,240.5 185,241.5C 182.644,243.075 180.478,244.741 178.5,246.5C 179.992,241.357 181.659,236.357 183.5,231.5C 183.263,230.209 183.596,229.209 184.5,228.5C 184.369,229.239 184.536,229.906 185,230.5C 188.532,226.684 192.032,223.018 195.5,219.5 Z"/></g>
<g><path style="opacity:0.465" fill="#464e51" d="M 265.5,215.5 C 266.33,219.468 267.497,223.468 269,227.5C 270.851,228.537 272.017,227.87 272.5,225.5C 273.768,227.905 274.435,230.572 274.5,233.5C 274.5,234.5 274.5,235.5 274.5,236.5C 271.753,236.813 269.086,236.48 266.5,235.5C 265.016,230.959 264.349,226.292 264.5,221.5C 264.205,219.265 264.539,217.265 265.5,215.5 Z"/></g>
<g><path style="opacity:0.498" fill="#576064" d="M 197.5,225.5 C 198.997,230.458 200.664,235.458 202.5,240.5C 199.885,254.499 199.885,268.499 202.5,282.5C 201.917,285.241 200.917,287.908 199.5,290.5C 192.25,297.577 185.584,305.077 179.5,313C 169.432,320.639 158.099,325.472 145.5,327.5C 133.558,326.867 123.558,322.2 115.5,313.5C 112.474,309.116 109.807,304.449 107.5,299.5C 117.614,301.037 127.281,299.537 136.5,295C 149.549,286.288 161.049,275.788 171,263.5C 173.985,258.046 176.485,252.379 178.5,246.5C 180.478,244.741 182.644,243.075 185,241.5C 185.333,240.5 185.667,239.5 186,238.5C 189.851,234.094 193.684,229.761 197.5,225.5 Z"/></g>
<g><path style="opacity:0.498" fill="#596165" d="M 264.5,221.5 C 264.349,226.292 265.016,230.959 266.5,235.5C 269.086,236.48 271.753,236.813 274.5,236.5C 274.5,235.5 274.5,234.5 274.5,233.5C 276.781,238.113 278.115,243.113 278.5,248.5C 276.624,272.386 273.291,296.053 268.5,319.5C 266.088,319.694 265.088,321.027 265.5,323.5C 261.695,324.267 257.861,324.933 254,325.5C 245.805,325.304 240.472,321.304 238,313.5C 237.341,308.113 235.841,303.113 233.5,298.5C 242.538,291.146 249.705,282.146 255,271.5C 258.72,254.833 261.887,238.166 264.5,221.5 Z"/></g>
<g><path style="opacity:1" fill="#364108" d="M 77.5,233.5 C 77.9465,236.01 77.2798,238.01 75.5,239.5C 75.8751,237.302 76.5418,235.302 77.5,233.5 Z"/></g>
<g><path style="opacity:0.867" fill="#334208" d="M 388.5,242.5 C 388.741,244.898 388.074,246.898 386.5,248.5C 386.595,246.214 387.262,244.214 388.5,242.5 Z"/></g>
<g><path style="opacity:0.047" fill="#191c1e" d="M 479.5,207.5 C 479.5,207.167 479.5,206.833 479.5,206.5C 491.416,208.186 501.916,212.853 511,220.5C 511.667,228.833 511.667,237.167 511,245.5C 508.547,250.4 505.713,255.734 502.5,261.5C 501.508,261.672 500.842,261.338 500.5,260.5C 504.177,255.332 507.011,249.665 509,243.5C 509.667,236.5 509.667,229.5 509,222.5C 508.535,221.069 507.701,219.903 506.5,219C 503.598,216.816 500.598,214.816 497.5,213C 494.247,211.964 490.914,211.297 487.5,211C 484.929,209.546 482.262,208.38 479.5,207.5 Z"/></g>
<g><path style="opacity:0.82" fill="#283403" d="M 75.5,241.5 C 75.5,248.833 75.5,256.167 75.5,263.5C 74.7656,262.122 74.0989,260.622 73.5,259C 74.8333,255 74.8333,251 73.5,247C 74.1094,245.052 74.776,243.218 75.5,241.5 Z"/></g>
<g><path style="opacity:0.498" fill="#576064" d="M 478.5,292.5 C 470.843,301.126 463.176,309.793 455.5,318.5C 442.787,319.397 430.12,320.73 417.5,322.5C 414.577,316.807 412.577,310.807 411.5,304.5C 417.399,302.466 422.732,299.3 427.5,295C 437.355,283.646 447.021,272.146 456.5,260.5C 460.121,264.633 463.621,268.967 467,273.5C 469.835,280.488 473.669,286.821 478.5,292.5 Z"/></g>
<g><path style="opacity:0.013" fill="#0c0e0e" d="M 508.5,267.5 C 529.689,271.885 545.189,283.552 555,302.5C 556.664,306.156 557.497,309.99 557.5,314C 556.263,321.203 554.93,328.369 553.5,335.5C 551.249,332.705 548.582,330.372 545.5,328.5C 547.144,328.714 548.644,328.38 550,327.5C 552.226,321.689 552.892,315.689 552,309.5C 551.584,307.45 550.417,306.116 548.5,305.5C 548.5,304.167 548.5,302.833 548.5,301.5C 548.657,300.127 548.49,298.793 548,297.5C 541.461,291.292 534.627,285.459 527.5,280C 523.812,277.655 519.812,276.155 515.5,275.5C 513.196,272.859 510.862,270.192 508.5,267.5 Z"/></g>
<g><path style="opacity:0.102" fill="#1f2314" d="M 304.5,251.5 C 305.461,253.265 305.795,255.265 305.5,257.5C 307.102,278.554 306.602,299.554 304,320.5C 303.617,319.944 303.117,319.611 302.5,319.5C 304.18,296.87 304.847,274.204 304.5,251.5 Z"/></g>
<g><path style="opacity:0.498" fill="#575f63" d="M 516.5,277.5 C 521.633,277.793 525.3,280.293 527.5,285C 529.901,287.062 532.567,288.729 535.5,290C 539.408,294.413 543.741,298.247 548.5,301.5C 548.5,302.833 548.5,304.167 548.5,305.5C 550.046,312.622 549.546,319.622 547,326.5C 546.005,327.066 545.172,327.733 544.5,328.5C 534.819,323.494 524.486,320.494 513.5,319.5C 513.158,318.662 512.492,318.328 511.5,318.5C 511.657,317.127 511.49,315.793 511,314.5C 508.716,312.264 507.216,309.598 506.5,306.5C 509.518,306.665 512.518,306.498 515.5,306C 521.765,296.711 522.099,287.211 516.5,277.5 Z"/></g>
<g><path style="opacity:0.4" fill="#3b4044" d="M 515.5,275.5 C 519.812,276.155 523.812,277.655 527.5,280C 534.627,285.459 541.461,291.292 548,297.5C 548.49,298.793 548.657,300.127 548.5,301.5C 543.741,298.247 539.408,294.413 535.5,290C 532.567,288.729 529.901,287.062 527.5,285C 525.3,280.293 521.633,277.793 516.5,277.5C 515.662,277.158 515.328,276.492 515.5,275.5 Z"/></g>
<g><path style="opacity:0.898" fill="#38430a" d="M 89.5,290.5 C 91.0269,290.427 92.0269,291.094 92.5,292.5C 90.9731,292.573 89.9731,291.906 89.5,290.5 Z"/></g>
<g><path style="opacity:0.158" fill="#222629" d="M 329.5,229.5 C 331.109,232.906 332.276,236.573 333,240.5C 336.179,268.083 337.179,295.749 336,323.5C 334.09,346.494 332.257,369.494 330.5,392.5C 329.559,398.733 328.226,404.733 326.5,410.5C 327.833,393.833 329.167,377.166 330.5,360.5C 333.401,340.088 334.734,319.421 334.5,298.5C 335.059,280.195 333.725,262.195 330.5,244.5C 330.5,244.167 330.5,243.833 330.5,243.5C 329.873,238.859 329.54,234.193 329.5,229.5 Z"/></g>
<g><path style="opacity:0.906" fill="#324106" d="M 92.5,292.5 C 94.4341,293.11 96.1007,294.11 97.5,295.5C 95.0672,295.727 93.4006,294.727 92.5,292.5 Z"/></g>
<g><path style="opacity:0.082" fill="#111600" d="M 207.5,293.5 C 208.5,293.833 209.167,294.5 209.5,295.5C 208.209,295.737 207.209,295.404 206.5,294.5C 207.167,294.5 207.5,294.167 207.5,293.5 Z"/></g>
<g><path style="opacity:0.957" fill="#293503" d="M 209.5,295.5 C 211.027,295.427 212.027,296.094 212.5,297.5C 210.973,297.573 209.973,296.906 209.5,295.5 Z"/></g>
<g><path style="opacity:0.016" fill="#080b07" d="M 479.5,295.5 C 480.167,296.833 480.833,298.167 481.5,299.5C 475.766,305.564 470.099,311.564 464.5,317.5C 462.194,317.993 459.861,318.326 457.5,318.5C 465.48,311.519 472.813,303.852 479.5,295.5 Z"/></g>
<g><path style="opacity:0.753" fill="#374903" d="M 219.5,299.5 C 222.833,299.5 226.167,299.5 229.5,299.5C 229.5,299.833 229.5,300.167 229.5,300.5C 228.5,300.5 227.5,300.5 226.5,300.5C 225.833,300.5 225.5,300.833 225.5,301.5C 223.609,300.464 221.776,300.464 220,301.5C 219.536,300.906 219.369,300.239 219.5,299.5 Z"/></g>
<g><path style="opacity:0.133" fill="#232829" d="M 478.5,292.5 C 479.11,293.391 479.443,294.391 479.5,295.5C 472.813,303.852 465.48,311.519 457.5,318.5C 456.833,318.5 456.167,318.5 455.5,318.5C 463.176,309.793 470.843,301.126 478.5,292.5 Z"/></g>
<g><path style="opacity:0.941" fill="#3a4b04" d="M 485.5,302.5 C 490.052,303.057 494.385,304.057 498.5,305.5C 497.833,305.5 497.167,305.5 496.5,305.5C 492.521,305.258 488.854,304.258 485.5,302.5 Z"/></g>
<g><path style="opacity:0.019" fill="#070805" d="M 496.5,305.5 C 497.167,305.5 497.833,305.5 498.5,305.5C 500.415,305.216 502.081,305.549 503.5,306.5C 502.761,306.369 502.094,306.536 501.5,307C 503.248,310.499 505.248,313.832 507.5,317C 506.584,317.278 505.918,317.778 505.5,318.5C 504.209,318.737 503.209,318.404 502.5,317.5C 502.938,317.565 503.272,317.399 503.5,317C 500.12,313.79 497.787,309.957 496.5,305.5 Z"/></g>
<g><path style="opacity:0.479" fill="#4c5357" d="M 233.5,298.5 C 235.841,303.113 237.341,308.113 238,313.5C 240.472,321.304 245.805,325.304 254,325.5C 257.861,324.933 261.695,324.267 265.5,323.5C 265.088,321.027 266.088,319.694 268.5,319.5C 268.483,321.565 268.15,323.565 267.5,325.5C 266.728,326.694 265.728,327.694 264.5,328.5C 258.537,329.53 252.537,329.697 246.5,329C 242.413,326.246 238.913,322.746 236,318.5C 234.263,312.991 232.93,307.324 232,301.5C 231.329,300.748 230.496,300.414 229.5,300.5C 229.5,300.167 229.5,299.833 229.5,299.5C 230.959,299.567 232.292,299.234 233.5,298.5 Z"/></g>
<g><path style="opacity:0.012" fill="#0a0c0c" d="M 226.5,300.5 C 227.5,300.5 228.5,300.5 229.5,300.5C 229.156,308.961 231.489,316.461 236.5,323C 239.5,325.333 242.5,327.667 245.5,330C 251.5,330.667 257.5,330.667 263.5,330C 264.056,329.617 264.389,329.117 264.5,328.5C 265.728,327.694 266.728,326.694 267.5,325.5C 267.5,326.833 267.5,328.167 267.5,329.5C 266.662,329.842 266.328,330.508 266.5,331.5C 265.167,331.833 265.167,332.167 266.5,332.5C 266.5,333.167 266.167,333.5 265.5,333.5C 254.499,336.554 244.166,335.054 234.5,329C 229.588,320.54 226.588,311.373 225.5,301.5C 226.167,301.5 226.5,301.167 226.5,300.5 Z"/></g>
<g><path style="opacity:0.341" fill="#394044" d="M 305.5,257.5 C 306.341,260.505 307.508,263.505 309,266.5C 309.978,293.979 307.478,320.979 301.5,347.5C 301.279,338.134 301.613,328.801 302.5,319.5C 303.117,319.611 303.617,319.944 304,320.5C 306.602,299.554 307.102,278.554 305.5,257.5 Z"/></g>
<g><path style="opacity:0.231" fill="#2b3033" d="M 503.5,306.5 C 504.5,306.5 505.5,306.5 506.5,306.5C 507.216,309.598 508.716,312.264 511,314.5C 511.49,315.793 511.657,317.127 511.5,318.5C 509.5,318.5 507.5,318.5 505.5,318.5C 505.918,317.778 506.584,317.278 507.5,317C 505.248,313.832 503.248,310.499 501.5,307C 502.094,306.536 502.761,306.369 503.5,306.5 Z"/></g>
<g><path style="opacity:0.386" fill="#3a4044" d="M 548.5,305.5 C 550.417,306.116 551.584,307.45 552,309.5C 552.892,315.689 552.226,321.689 550,327.5C 548.644,328.38 547.144,328.714 545.5,328.5C 545.167,328.5 544.833,328.5 544.5,328.5C 545.172,327.733 546.005,327.066 547,326.5C 549.546,319.622 550.046,312.622 548.5,305.5 Z"/></g>
<g><path style="opacity:0.053" fill="#0f120e" d="M 399.5,305.5 C 402.833,305.5 406.167,305.5 409.5,305.5C 409.697,311.824 411.03,317.824 413.5,323.5C 412.167,323.833 410.833,324.167 409.5,324.5C 407.527,321.093 406.027,317.426 405,313.5C 404.242,311.231 404.409,309.064 405.5,307C 403.292,306.809 401.292,306.309 399.5,305.5 Z"/></g>
<g><path style="opacity:0.345" fill="#394041" d="M 411.5,304.5 C 412.577,310.807 414.577,316.807 417.5,322.5C 416.432,323.434 415.099,323.768 413.5,323.5C 411.03,317.824 409.697,311.824 409.5,305.5C 410.167,305.167 410.833,304.833 411.5,304.5 Z"/></g>
<g><path style="opacity:1" fill="#799901" d="M 464.5,317.5 C 470.5,317.5 476.5,317.5 482.5,317.5C 482.611,318.117 482.944,318.617 483.5,319C 493.494,319.5 503.494,319.666 513.5,319.5C 524.486,320.494 534.819,323.494 544.5,328.5C 544.833,328.5 545.167,328.5 545.5,328.5C 548.582,330.372 551.249,332.705 553.5,335.5C 554.931,336.78 555.598,338.447 555.5,340.5C 555.5,341.5 555.5,342.5 555.5,343.5C 555.839,350.668 552.505,355.168 545.5,357C 536.833,357.667 528.167,357.667 519.5,357C 510.113,354.88 500.779,352.547 491.5,350C 483.94,348.549 479.773,351.716 479,359.5C 478.763,373.525 478.263,387.525 477.5,401.5C 487.428,399.676 497.428,398.342 507.5,397.5C 510.167,397.5 512.833,397.5 515.5,397.5C 516.5,397.833 517.167,398.5 517.5,399.5C 517.427,401.027 518.094,402.027 519.5,402.5C 520.674,403.514 521.34,404.847 521.5,406.5C 521.5,412.833 521.5,419.167 521.5,425.5C 521.5,427.167 521.5,428.833 521.5,430.5C 521.587,435.759 519.254,437.426 514.5,435.5C 512.597,437.905 510.264,439.739 507.5,441C 495.5,441.333 483.5,441.667 471.5,442C 463.057,443.128 456.557,447.295 452,454.5C 448.69,461.538 446.19,468.871 444.5,476.5C 442.259,481.222 440.593,486.222 439.5,491.5C 436.167,491.5 432.833,491.5 429.5,491.5C 421.752,490.043 415.252,486.376 410,480.5C 409.51,479.207 409.343,477.873 409.5,476.5C 409.5,474.833 409.5,473.167 409.5,471.5C 410.912,462.173 414.912,454.007 421.5,447C 416.592,447.803 411.925,449.303 407.5,451.5C 403.5,451.5 399.5,451.5 395.5,451.5C 394.833,451.5 394.167,451.5 393.5,451.5C 393.027,450.094 392.027,449.427 390.5,449.5C 386.233,448.232 383.233,445.565 381.5,441.5C 380.532,438.9 379.199,436.566 377.5,434.5C 376.372,428.425 378.039,423.425 382.5,419.5C 384.833,417.833 386.833,415.833 388.5,413.5C 399.239,414.259 409.906,414.259 420.5,413.5C 421.791,413.737 422.791,413.404 423.5,412.5C 427.025,411.79 430.358,410.79 433.5,409.5C 434.167,409.5 434.833,409.5 435.5,409.5C 439.517,410.161 440.851,408.828 439.5,405.5C 439.5,404.833 439.5,404.167 439.5,403.5C 439.5,402.167 439.5,400.833 439.5,399.5C 439.5,398.833 439.5,398.167 439.5,397.5C 440.234,396.292 440.567,394.959 440.5,393.5C 441.458,391.698 442.125,389.698 442.5,387.5C 443.347,382.111 444.514,376.777 446,371.5C 449.033,365.777 451.199,359.777 452.5,353.5C 438.84,355.748 425.506,359.248 412.5,364C 407.815,366.339 403.482,369.173 399.5,372.5C 397.453,379.32 394.453,385.653 390.5,391.5C 385.014,394.921 379.014,396.254 372.5,395.5C 370.574,393.707 368.241,392.707 365.5,392.5C 361.462,389.488 357.462,386.488 353.5,383.5C 353.262,381.596 352.262,380.262 350.5,379.5C 349.026,378.564 348.026,377.23 347.5,375.5C 347.771,373.62 347.104,372.287 345.5,371.5C 345.167,370.833 344.833,370.167 344.5,369.5C 344.611,362.356 344.778,355.023 345,347.5C 345.717,346.956 346.217,346.289 346.5,345.5C 349.1,344.532 351.434,343.199 353.5,341.5C 360.136,340.677 365.469,337.51 369.5,332C 370.901,331.59 372.234,331.09 373.5,330.5C 376.627,331.815 379.627,331.482 382.5,329.5C 386.906,329.252 391.24,328.585 395.5,327.5C 398.877,327.932 401.877,327.265 404.5,325.5C 406.042,324.699 407.708,324.366 409.5,324.5C 410.833,324.167 412.167,323.833 413.5,323.5C 415.099,323.768 416.432,323.434 417.5,322.5C 430.12,320.73 442.787,319.397 455.5,318.5C 456.167,318.5 456.833,318.5 457.5,318.5C 459.861,318.326 462.194,317.993 464.5,317.5 Z"/></g>
<g><path style="opacity:1" fill="#5f7702" d="M 482.5,317.5 C 489.167,317.5 495.833,317.5 502.5,317.5C 503.209,318.404 504.209,318.737 505.5,318.5C 507.5,318.5 509.5,318.5 511.5,318.5C 512.492,318.328 513.158,318.662 513.5,319.5C 503.494,319.666 493.494,319.5 483.5,319C 482.944,318.617 482.611,318.117 482.5,317.5 Z"/></g>
<g><path style="opacity:0.302" fill="#2b3133" d="M 229.5,300.5 C 230.496,300.414 231.329,300.748 232,301.5C 232.93,307.324 234.263,312.991 236,318.5C 238.913,322.746 242.413,326.246 246.5,329C 252.537,329.697 258.537,329.53 264.5,328.5C 264.389,329.117 264.056,329.617 263.5,330C 257.5,330.667 251.5,330.667 245.5,330C 242.5,327.667 239.5,325.333 236.5,323C 231.489,316.461 229.156,308.961 229.5,300.5 Z"/></g>
<g><path style="opacity:0.408" fill="#434a4e" d="M 202.5,282.5 C 203.363,284.421 204.029,286.421 204.5,288.5C 194.28,301.552 182.28,312.719 168.5,322C 158.677,326.577 148.344,328.743 137.5,328.5C 129.374,327.199 122.54,323.532 117,317.5C 116.209,316.255 115.709,314.922 115.5,313.5C 123.558,322.2 133.558,326.867 145.5,327.5C 158.099,325.472 169.432,320.639 179.5,313C 185.584,305.077 192.25,297.577 199.5,290.5C 200.917,287.908 201.917,285.241 202.5,282.5 Z"/></g>
<g><path style="opacity:0.31" fill="#32383b" d="M 204.5,288.5 C 204.5,288.833 204.5,289.167 204.5,289.5C 197.803,298.706 190.136,307.206 181.5,315C 176.481,317.843 171.814,321.176 167.5,325C 157.738,329.368 147.738,330.535 137.5,328.5C 148.344,328.743 158.677,326.577 168.5,322C 182.28,312.719 194.28,301.552 204.5,288.5 Z"/></g>
<g><path style="opacity:1" fill="#455804" d="M 404.5,325.5 C 401.877,327.265 398.877,327.932 395.5,327.5C 398.273,326.343 401.273,325.676 404.5,325.5 Z"/></g>
<g><path style="opacity:0.011" fill="#0d0f10" d="M 204.5,289.5 C 205.974,290.436 206.974,291.77 207.5,293.5C 206.833,293.5 206.5,293.833 206.5,294.5C 195.914,309.582 182.581,321.748 166.5,331C 148.293,337.532 131.293,335.199 115.5,324C 109.359,316.092 105.026,307.259 102.5,297.5C 104.284,297.893 105.95,298.559 107.5,299.5C 109.807,304.449 112.474,309.116 115.5,313.5C 115.709,314.922 116.209,316.255 117,317.5C 122.54,323.532 129.374,327.199 137.5,328.5C 147.738,330.535 157.738,329.368 167.5,325C 171.814,321.176 176.481,317.843 181.5,315C 190.136,307.206 197.803,298.706 204.5,289.5 Z"/></g>
<g><path style="opacity:1" fill="#394705" d="M 382.5,329.5 C 379.627,331.482 376.627,331.815 373.5,330.5C 376.518,330.296 379.518,329.963 382.5,329.5 Z"/></g>
<g><path style="opacity:0.338" fill="#3a4045" d="M 330.5,244.5 C 333.725,262.195 335.059,280.195 334.5,298.5C 334.734,319.421 333.401,340.088 330.5,360.5C 333.043,321.827 333.043,283.161 330.5,244.5 Z"/></g>
<g><path style="opacity:0.91" fill="#455705" d="M 353.5,341.5 C 351.434,343.199 349.1,344.532 346.5,345.5C 348.121,343.058 350.454,341.725 353.5,341.5 Z"/></g>
<g><path style="opacity:0.749" fill="#4c6303" d="M 346.5,345.5 C 346.217,346.289 345.717,346.956 345,347.5C 344.778,355.023 344.611,362.356 344.5,369.5C 343.475,361.861 343.309,354.195 344,346.5C 344.671,345.748 345.504,345.414 346.5,345.5 Z"/></g>
<g><path style="opacity:0.498" fill="#565e63" d="M 555.5,343.5 C 556.404,344.209 556.737,345.209 556.5,346.5C 562.22,347.702 567.886,349.202 573.5,351C 574.056,351.383 574.389,351.883 574.5,352.5C 578.633,355.745 582.466,359.411 586,363.5C 587.711,369.694 586.211,374.86 581.5,379C 566.258,381.573 551.258,380.573 536.5,376C 529.497,375.256 522.497,374.922 515.5,375C 513.479,375.513 511.979,376.68 511,378.5C 508.131,384.522 506.965,390.855 507.5,397.5C 497.428,398.342 487.428,399.676 477.5,401.5C 478.263,387.525 478.763,373.525 479,359.5C 479.773,351.716 483.94,348.549 491.5,350C 500.779,352.547 510.113,354.88 519.5,357C 528.167,357.667 536.833,357.667 545.5,357C 552.505,355.168 555.839,350.668 555.5,343.5 Z"/></g>
<g><path style="opacity:0.424" fill="#475702" d="M 267.5,329.5 C 266.554,339.014 265.221,348.348 263.5,357.5C 264.093,349.493 264.76,341.493 265.5,333.5C 266.167,333.5 266.5,333.167 266.5,332.5C 266.5,332.167 266.5,331.833 266.5,331.5C 266.328,330.508 266.662,329.842 267.5,329.5 Z"/></g>
<g><path style="opacity:0.04" fill="#0b0c0d" d="M 287.5,417.5 C 289.219,412.753 290.886,408.086 292.5,403.5C 292.334,408.179 292.501,412.845 293,417.5C 296.813,425.044 299.313,433.044 300.5,441.5C 301.806,445.905 304.473,449.405 308.5,452C 310.833,452.667 313.167,452.667 315.5,452C 318.038,448.803 320.538,445.636 323,442.5C 323.559,435.751 324.392,429.084 325.5,422.5C 326.021,418.519 326.354,414.519 326.5,410.5C 328.226,404.733 329.559,398.733 330.5,392.5C 332.257,369.494 334.09,346.494 336,323.5C 337.179,295.749 336.179,268.083 333,240.5C 332.276,236.573 331.109,232.906 329.5,229.5C 327.667,203.983 329,178.649 333.5,153.5C 339.312,137.786 339.812,121.786 335,105.5C 327.705,97.2696 318.538,92.9362 307.5,92.5C 307.167,92.5 306.833,92.5 306.5,92.5C 306.5,91.5 306.5,90.5 306.5,89.5C 326.514,88.9358 338.014,98.6025 341,118.5C 341.196,133.003 339.53,147.336 336,161.5C 334.238,178.474 332.738,195.474 331.5,212.5C 338.668,249.846 341.168,287.513 339,325.5C 336.77,352.476 334.77,379.476 333,406.5C 330.987,422.895 326.653,438.562 320,453.5C 318.667,454.167 317.333,454.833 316,455.5C 308.644,455.169 302.311,452.502 297,447.5C 294.247,438.401 291.747,429.235 289.5,420C 289.316,418.624 288.649,417.791 287.5,417.5 Z"/></g>
<g><path style="opacity:0.498" fill="#576063" d="M 442.5,387.5 C 429.392,391.275 422.059,399.941 420.5,413.5C 409.906,414.259 399.239,414.259 388.5,413.5C 385.685,412.874 383.185,411.54 381,409.5C 377.285,405.611 374.119,401.278 371.5,396.5C 371.624,395.893 371.957,395.56 372.5,395.5C 379.014,396.254 385.014,394.921 390.5,391.5C 394.453,385.653 397.453,379.32 399.5,372.5C 403.482,369.173 407.815,366.339 412.5,364C 425.506,359.248 438.84,355.748 452.5,353.5C 451.199,359.777 449.033,365.777 446,371.5C 444.514,376.777 443.347,382.111 442.5,387.5 Z"/></g>
<g><path style="opacity:0.265" fill="#121300" d="M 263.5,363.5 C 263.5,369.5 263.5,375.5 263.5,381.5C 262.814,375.766 262.148,369.933 261.5,364C 262.094,363.536 262.761,363.369 263.5,363.5 Z"/></g>
<g><path style="opacity:0.11" fill="#1a2602" d="M 345.5,371.5 C 347.104,372.287 347.771,373.62 347.5,375.5C 346.326,374.486 345.66,373.153 345.5,371.5 Z"/></g>
<g><path style="opacity:0.38" fill="#33383b" d="M 574.5,352.5 C 581.402,353.203 585.902,356.87 588,363.5C 590.144,371.032 588.311,377.199 582.5,382C 564.408,385.042 546.741,383.708 529.5,378C 524.875,376.838 520.208,376.504 515.5,377C 512.215,378.801 510.381,381.635 510,385.5C 509.501,389.152 509.335,392.818 509.5,396.5C 510.833,396.5 512.167,396.5 513.5,396.5C 514.492,396.328 515.158,396.662 515.5,397.5C 512.833,397.5 510.167,397.5 507.5,397.5C 506.965,390.855 508.131,384.522 511,378.5C 511.979,376.68 513.479,375.513 515.5,375C 522.497,374.922 529.497,375.256 536.5,376C 551.258,380.573 566.258,381.573 581.5,379C 586.211,374.86 587.711,369.694 586,363.5C 582.466,359.411 578.633,355.745 574.5,352.5 Z"/></g>
<g><path style="opacity:0.008" fill="#181f03" d="M 350.5,379.5 C 352.262,380.262 353.262,381.596 353.5,383.5C 351.738,382.738 350.738,381.404 350.5,379.5 Z"/></g>
<g><path style="opacity:0.043" fill="#0c0d0e" d="M 555.5,340.5 C 568.404,341.688 579.904,346.688 590,355.5C 597.21,367.067 595.71,377.233 585.5,386C 565.844,389.029 546.511,387.696 527.5,382C 524.199,381.003 520.866,380.67 517.5,381C 516.283,382.648 515.45,384.481 515,386.5C 514.502,390.169 514.002,393.502 513.5,396.5C 512.167,396.5 510.833,396.5 509.5,396.5C 509.335,392.818 509.501,389.152 510,385.5C 510.381,381.635 512.215,378.801 515.5,377C 520.208,376.504 524.875,376.838 529.5,378C 546.741,383.708 564.408,385.042 582.5,382C 588.311,377.199 590.144,371.032 588,363.5C 585.902,356.87 581.402,353.203 574.5,352.5C 574.389,351.883 574.056,351.383 573.5,351C 567.886,349.202 562.22,347.702 556.5,346.5C 556.737,345.209 556.404,344.209 555.5,343.5C 555.5,342.5 555.5,341.5 555.5,340.5 Z"/></g>
<g><path style="opacity:0.392" fill="#3b4c01" d="M 263.5,383.5 C 265.16,386.77 265.494,390.103 264.5,393.5C 263.793,390.214 263.46,386.881 263.5,383.5 Z"/></g>
<g><path style="opacity:0.239" fill="#2f3536" d="M 442.5,387.5 C 442.125,389.698 441.458,391.698 440.5,393.5C 440.44,392.957 440.107,392.624 439.5,392.5C 437.618,393.093 435.785,393.76 434,394.5C 432.374,397.128 430.374,399.461 428,401.5C 426.643,405.304 425.143,408.97 423.5,412.5C 422.791,413.404 421.791,413.737 420.5,413.5C 422.059,399.941 429.392,391.275 442.5,387.5 Z"/></g>
<g><path style="opacity:0.014" fill="#0a0c06" d="M 440.5,393.5 C 440.567,394.959 440.234,396.292 439.5,397.5C 434.135,399.173 430.802,402.84 429.5,408.5C 430.689,409.429 432.022,409.762 433.5,409.5C 430.358,410.79 427.025,411.79 423.5,412.5C 425.143,408.97 426.643,405.304 428,401.5C 430.374,399.461 432.374,397.128 434,394.5C 435.785,393.76 437.618,393.093 439.5,392.5C 440.107,392.624 440.44,392.957 440.5,393.5 Z"/></g>
<g><path style="opacity:0.116" fill="#0b0b00" d="M 439.5,399.5 C 439.5,400.833 439.5,402.167 439.5,403.5C 438.751,402.469 438.085,401.302 437.5,400C 438.094,399.536 438.761,399.369 439.5,399.5 Z"/></g>
<g><path style="opacity:0.682" fill="#253006" d="M 517.5,399.5 C 518.906,399.973 519.573,400.973 519.5,402.5C 518.094,402.027 517.427,401.027 517.5,399.5 Z"/></g>
<g><path style="opacity:0.02" fill="#283404" d="M 267.5,404.5 C 269.785,407.335 271.118,410.668 271.5,414.5C 269.6,411.482 268.267,408.149 267.5,404.5 Z"/></g>
<g><path style="opacity:0.031" fill="#101210" d="M 365.5,392.5 C 368.241,392.707 370.574,393.707 372.5,395.5C 371.957,395.56 371.624,395.893 371.5,396.5C 374.119,401.278 377.285,405.611 381,409.5C 383.185,411.54 385.685,412.874 388.5,413.5C 386.833,415.833 384.833,417.833 382.5,419.5C 377.489,414.651 372.989,409.317 369,403.5C 368.265,401.129 367.432,398.795 366.5,396.5C 367.789,394.781 367.455,393.447 365.5,392.5 Z"/></g>
<g><path style="opacity:0.878" fill="#262e01" d="M 439.5,405.5 C 440.851,408.828 439.517,410.161 435.5,409.5C 436.263,408.732 437.263,408.232 438.5,408C 439.252,407.329 439.586,406.496 439.5,405.5 Z"/></g>
<g><path style="opacity:1" fill="#506502" d="M 521.5,406.5 C 522.222,406.918 522.722,407.584 523,408.5C 523.499,412.152 523.665,415.818 523.5,419.5C 522.549,420.919 522.216,422.585 522.5,424.5C 522.5,424.833 522.5,425.167 522.5,425.5C 522.167,425.5 521.833,425.5 521.5,425.5C 521.5,419.167 521.5,412.833 521.5,406.5 Z"/></g>
<g><path style="opacity:0.627" fill="#1e2a02" d="M 287.5,418.5 C 287.03,419.693 286.03,420.36 284.5,420.5C 283.274,420.48 282.274,420.147 281.5,419.5C 283.621,419.675 285.621,419.341 287.5,418.5 Z"/></g>
<g><path style="opacity:0.312" fill="#2e3337" d="M 542.5,468.5 C 541.833,468.5 541.167,468.5 540.5,468.5C 541.475,466.807 542.808,465.307 544.5,464C 546.888,463.697 549.055,462.863 551,461.5C 553.159,452.25 553.659,442.917 552.5,433.5C 550.31,431.144 548.31,428.644 546.5,426C 539.045,425.036 531.712,425.536 524.5,427.5C 523.287,427.253 522.62,426.586 522.5,425.5C 522.5,425.167 522.5,424.833 522.5,424.5C 530.495,423.81 538.495,423.643 546.5,424C 550.39,426.596 553.223,430.096 555,434.5C 556.029,443.315 555.363,451.982 553,460.5C 551.642,463.788 549.142,465.288 545.5,465C 544.29,466.039 543.29,467.206 542.5,468.5 Z"/></g>
<g><path style="opacity:0.013" fill="#0a0b0c" d="M 535.5,487.5 C 534.833,487.5 534.167,487.5 533.5,487.5C 533.158,486.662 532.492,486.328 531.5,486.5C 530.89,485.609 530.557,484.609 530.5,483.5C 530.141,481.629 529.141,480.129 527.5,479C 524.109,477.311 521.109,475.144 518.5,472.5C 524.807,471.669 531.141,471.169 537.5,471C 539.491,470.626 541.158,469.793 542.5,468.5C 543.29,467.206 544.29,466.039 545.5,465C 549.142,465.288 551.642,463.788 553,460.5C 555.363,451.982 556.029,443.315 555,434.5C 553.223,430.096 550.39,426.596 546.5,424C 538.495,423.643 530.495,423.81 522.5,424.5C 522.216,422.585 522.549,420.919 523.5,419.5C 523.511,422.001 524.178,422.168 525.5,420C 532.851,419.415 540.185,419.082 547.5,419C 553.622,422.387 557.455,427.554 559,434.5C 559.847,444.929 559.18,455.262 557,465.5C 556.535,466.931 555.701,468.097 554.5,469C 552.167,469.333 549.833,469.667 547.5,470C 542.137,473.746 536.137,475.412 529.5,475C 533.145,477.958 535.812,481.625 537.5,486C 536.584,486.278 535.918,486.778 535.5,487.5 Z"/></g>
<g><path style="opacity:0.498" fill="#576064" d="M 500.5,465.5 C 501.571,458.809 499.238,453.642 493.5,450C 483.62,444.531 473.62,444.197 463.5,449C 465.312,467.763 457.978,481.596 441.5,490.5C 444.61,486.283 446.61,481.617 447.5,476.5C 446.5,476.5 445.5,476.5 444.5,476.5C 446.19,468.871 448.69,461.538 452,454.5C 456.557,447.295 463.057,443.128 471.5,442C 483.5,441.667 495.5,441.333 507.5,441C 510.264,439.739 512.597,437.905 514.5,435.5C 519.254,437.426 521.587,435.759 521.5,430.5C 529.47,428.287 537.47,428.121 545.5,430C 547.938,432.295 549.438,435.128 550,438.5C 550.048,445.156 549.881,451.822 549.5,458.5C 546.984,458.755 544.65,459.589 542.5,461C 541.833,463 540.5,464.333 538.5,465C 525.838,465.5 513.171,465.667 500.5,465.5 Z"/></g>
<g><path style="opacity:0.118" fill="#1c2404" d="M 377.5,434.5 C 379.199,436.566 380.532,438.9 381.5,441.5C 379.069,439.954 377.736,437.621 377.5,434.5 Z"/></g>
<g><path style="opacity:0.466" fill="#4a5156" d="M 521.5,425.5 C 521.833,425.5 522.167,425.5 522.5,425.5C 522.62,426.586 523.287,427.253 524.5,427.5C 531.712,425.536 539.045,425.036 546.5,426C 548.31,428.644 550.31,431.144 552.5,433.5C 553.659,442.917 553.159,452.25 551,461.5C 549.055,462.863 546.888,463.697 544.5,464C 542.808,465.307 541.475,466.807 540.5,468.5C 526.944,468.566 513.611,468.566 500.5,468.5C 500.5,467.5 500.5,466.5 500.5,465.5C 513.171,465.667 525.838,465.5 538.5,465C 540.5,464.333 541.833,463 542.5,461C 544.65,459.589 546.984,458.755 549.5,458.5C 549.881,451.822 550.048,445.156 550,438.5C 549.438,435.128 547.938,432.295 545.5,430C 537.47,428.121 529.47,428.287 521.5,430.5C 521.5,428.833 521.5,427.167 521.5,425.5 Z"/></g>
<g><path style="opacity:1" fill="#789901" d="M 500.5,465.5 C 500.5,466.5 500.5,467.5 500.5,468.5C 499.199,471.101 497.866,473.768 496.5,476.5C 494.5,479.5 492.5,482.5 490.5,485.5C 488.863,487.475 487.196,489.475 485.5,491.5C 483.806,493.861 481.806,495.861 479.5,497.5C 478.244,497.461 477.244,497.961 476.5,499C 478.387,499.78 480.054,499.613 481.5,498.5C 483.117,497.962 484.784,497.629 486.5,497.5C 488.284,497.107 489.95,496.441 491.5,495.5C 493.099,495.768 494.432,495.434 495.5,494.5C 507.773,490.232 520.44,487.898 533.5,487.5C 534.167,487.5 534.833,487.5 535.5,487.5C 535.833,487.5 536.167,487.5 536.5,487.5C 536.953,488.458 537.619,489.292 538.5,490C 537.748,490.671 537.414,491.504 537.5,492.5C 537.5,493.167 537.167,493.5 536.5,493.5C 534.167,495.167 532.167,497.167 530.5,499.5C 528.457,500.579 527.124,502.246 526.5,504.5C 523.5,506.833 520.833,509.5 518.5,512.5C 496.763,525.526 473.096,532.86 447.5,534.5C 444.615,534.194 441.948,534.527 439.5,535.5C 439.167,535.5 438.833,535.5 438.5,535.5C 434.833,535.5 431.167,535.5 427.5,535.5C 423.162,532.826 418.828,530.159 414.5,527.5C 414.027,526.094 413.027,525.427 411.5,525.5C 411.027,524.094 410.027,523.427 408.5,523.5C 405.539,521.588 403.539,518.921 402.5,515.5C 403.255,512.947 403.922,510.28 404.5,507.5C 414.916,504.474 424.916,500.474 434.5,495.5C 437.37,494.567 439.704,492.9 441.5,490.5C 457.978,481.596 465.312,467.763 463.5,449C 473.62,444.197 483.62,444.531 493.5,450C 499.238,453.642 501.571,458.809 500.5,465.5 Z M 485.5,491.5 C 486.497,491.47 487.164,491.97 487.5,493C 487.011,494.564 486.678,496.064 486.5,497.5C 484.784,497.629 483.117,497.962 481.5,498.5C 480.508,498.672 479.842,498.338 479.5,497.5C 481.806,495.861 483.806,493.861 485.5,491.5 Z"/></g>
<g><path style="opacity:0.129" fill="#1e2124" d="M 325.5,422.5 C 324.392,429.084 323.559,435.751 323,442.5C 320.538,445.636 318.038,448.803 315.5,452C 313.167,452.667 310.833,452.667 308.5,452C 304.473,449.405 301.806,445.905 300.5,441.5C 303.775,447.468 308.775,449.634 315.5,448C 316.701,447.097 317.535,445.931 318,444.5C 320.043,436.867 322.543,429.534 325.5,422.5 Z"/></g>
<g><path style="opacity:0.937" fill="#2a3606" d="M 390.5,449.5 C 392.027,449.427 393.027,450.094 393.5,451.5C 391.973,451.573 390.973,450.906 390.5,449.5 Z"/></g>
<g><path style="opacity:0.492" fill="#515b56" d="M 409.5,471.5 C 406.863,465.016 406.196,458.349 407.5,451.5C 411.925,449.303 416.592,447.803 421.5,447C 414.912,454.007 410.912,462.173 409.5,471.5 Z"/></g>
<g><path style="opacity:0.05" fill="#141614" d="M 395.5,451.5 C 399.5,451.5 403.5,451.5 407.5,451.5C 406.196,458.349 406.863,465.016 409.5,471.5C 409.5,473.167 409.5,474.833 409.5,476.5C 408.883,476.611 408.383,476.944 408,477.5C 401.686,470.56 399.02,462.56 400,453.5C 398.378,452.901 396.878,452.234 395.5,451.5 Z"/></g>
<g><path style="opacity:0.144" fill="#222629" d="M 500.5,468.5 C 513.611,468.566 526.944,468.566 540.5,468.5C 541.167,468.5 541.833,468.5 542.5,468.5C 541.158,469.793 539.491,470.626 537.5,471C 531.141,471.169 524.807,471.669 518.5,472.5C 521.109,475.144 524.109,477.311 527.5,479C 529.141,480.129 530.141,481.629 530.5,483.5C 525.82,480.158 520.82,477.325 515.5,475C 509.02,474.152 502.687,474.652 496.5,476.5C 497.866,473.768 499.199,471.101 500.5,468.5 Z"/></g>
<g><path style="opacity:0.498" fill="#576062" d="M 531.5,486.5 C 532.492,486.328 533.158,486.662 533.5,487.5C 520.44,487.898 507.773,490.232 495.5,494.5C 495.334,489.821 495.501,485.155 496,480.5C 496.374,479.584 496.874,478.75 497.5,478C 502.762,476.561 508.096,476.228 513.5,477C 518.34,478.922 523.007,481.088 527.5,483.5C 527.5,484.5 527.5,485.5 527.5,486.5C 528.833,486.5 530.167,486.5 531.5,486.5 Z"/></g>
<g><path style="opacity:0.216" fill="#272c20" d="M 444.5,476.5 C 445.5,476.5 446.5,476.5 447.5,476.5C 446.61,481.617 444.61,486.283 441.5,490.5C 439.704,492.9 437.37,494.567 434.5,495.5C 434.5,495.167 434.5,494.833 434.5,494.5C 435.289,494.217 435.956,493.717 436.5,493C 433.964,492.814 431.631,492.314 429.5,491.5C 432.833,491.5 436.167,491.5 439.5,491.5C 440.593,486.222 442.259,481.222 444.5,476.5 Z"/></g>
<g><path style="opacity:0.458" fill="#444b4c" d="M 530.5,483.5 C 530.557,484.609 530.89,485.609 531.5,486.5C 530.167,486.5 528.833,486.5 527.5,486.5C 527.5,485.5 527.5,484.5 527.5,483.5C 523.007,481.088 518.34,478.922 513.5,477C 508.096,476.228 502.762,476.561 497.5,478C 496.874,478.75 496.374,479.584 496,480.5C 495.501,485.155 495.334,489.821 495.5,494.5C 494.432,495.434 493.099,495.768 491.5,495.5C 491.813,491.958 491.479,488.625 490.5,485.5C 492.5,482.5 494.5,479.5 496.5,476.5C 502.687,474.652 509.02,474.152 515.5,475C 520.82,477.325 525.82,480.158 530.5,483.5 Z"/></g>
<g><path style="opacity:0.106" fill="#1f2903" d="M 536.5,487.5 C 538.484,487.484 539.484,488.484 539.5,490.5C 539.253,491.713 538.586,492.38 537.5,492.5C 537.414,491.504 537.748,490.671 538.5,490C 537.619,489.292 536.953,488.458 536.5,487.5 Z"/></g>
<g><path style="opacity:0.041" fill="#12160e" d="M 490.5,485.5 C 491.479,488.625 491.813,491.958 491.5,495.5C 489.95,496.441 488.284,497.107 486.5,497.5C 486.678,496.064 487.011,494.564 487.5,493C 487.164,491.97 486.497,491.47 485.5,491.5C 487.196,489.475 488.863,487.475 490.5,485.5 Z"/></g>
<g><path style="opacity:0.004" fill="#0e1400" d="M 434.5,494.5 C 433.833,493.167 433.833,493.167 434.5,494.5 Z"/></g>
<g><path style="opacity:0.106" fill="#121a00" d="M 479.5,497.5 C 479.842,498.338 480.508,498.672 481.5,498.5C 480.054,499.613 478.387,499.78 476.5,499C 477.244,497.961 478.244,497.461 479.5,497.5 Z"/></g>
<g><path style="opacity:0.506" fill="#1e2500" d="M 404.5,507.5 C 403.922,510.28 403.255,512.947 402.5,515.5C 401.964,512.302 402.631,509.635 404.5,507.5 Z"/></g>
<g><path style="opacity:0.198" fill="#23272a" d="M 530.5,499.5 C 528.353,508.1 523.853,515.433 517,521.5C 516.517,522.448 516.351,523.448 516.5,524.5C 518.857,524.663 521.19,524.497 523.5,524C 533.315,520.55 543.315,517.55 553.5,515C 574.707,513.572 577.04,519.405 560.5,532.5C 557.645,535.52 554.979,538.687 552.5,542C 549.562,543.808 546.562,545.308 543.5,546.5C 552.982,539.185 561.315,530.685 568.5,521C 568.561,519.289 567.894,517.956 566.5,517C 552.24,517.296 538.574,520.296 525.5,526C 520.916,527.363 516.249,528.197 511.5,528.5C 511.34,526.801 511.506,525.134 512,523.5C 517.81,517.865 522.643,511.531 526.5,504.5C 527.124,502.246 528.457,500.579 530.5,499.5 Z"/></g>
<g><path style="opacity:0.498" fill="#586065" d="M 518.5,512.5 C 517.218,514.464 515.885,516.464 514.5,518.5C 509.884,520.782 506.217,524.116 503.5,528.5C 505.286,533.18 508.619,534.68 513.5,533C 527.285,529.18 540.951,525.18 554.5,521C 557.882,520.176 561.216,520.343 564.5,521.5C 559.145,527.054 554.145,532.887 549.5,539C 545.08,541.745 540.747,544.578 536.5,547.5C 510.733,558.684 483.733,563.351 455.5,561.5C 451.484,559.333 447.484,557.166 443.5,555C 438.473,551.769 435.973,547.269 436,541.5C 437.887,539.114 440.387,537.947 443.5,538C 445.319,537.26 446.652,536.093 447.5,534.5C 473.096,532.86 496.763,525.526 518.5,512.5 Z"/></g>
<g><path style="opacity:0.62" fill="#2f3a09" d="M 408.5,523.5 C 410.027,523.427 411.027,524.094 411.5,525.5C 409.973,525.573 408.973,524.906 408.5,523.5 Z"/></g>
<g><path style="opacity:0.867" fill="#1b2a00" d="M 411.5,525.5 C 413.027,525.427 414.027,526.094 414.5,527.5C 412.973,527.573 411.973,526.906 411.5,525.5 Z"/></g>
<g><path style="opacity:0.013" fill="#08090a" d="M 536.5,493.5 C 535.895,502.575 532.562,510.741 526.5,518C 538.538,514.559 550.871,512.059 563.5,510.5C 566.884,511.143 570.217,511.977 573.5,513C 576.671,516.509 577.171,520.343 575,524.5C 567.167,532.333 559.333,540.167 551.5,548C 531.398,560.866 509.398,568.533 485.5,571C 475.167,571.667 464.833,571.667 454.5,571C 444.944,566.789 436.444,560.955 429,553.5C 426.702,548.347 425.535,543.18 425.5,538C 426.833,537.667 428.167,537.333 429.5,537C 428.584,536.722 427.918,536.222 427.5,535.5C 431.167,535.5 434.833,535.5 438.5,535.5C 436.067,536.413 433.567,537.413 431,538.5C 430.233,542.558 430.4,546.558 431.5,550.5C 438.69,556.928 446.69,562.095 455.5,566C 474.479,567.102 493.146,565.269 511.5,560.5C 515.836,558.346 520.17,556.346 524.5,554.5C 528.694,554.45 532.694,553.617 536.5,552C 538.57,549.722 540.903,547.889 543.5,546.5C 546.562,545.308 549.562,543.808 552.5,542C 554.979,538.687 557.645,535.52 560.5,532.5C 577.04,519.405 574.707,513.572 553.5,515C 543.315,517.55 533.315,520.55 523.5,524C 521.19,524.497 518.857,524.663 516.5,524.5C 516.351,523.448 516.517,522.448 517,521.5C 523.853,515.433 528.353,508.1 530.5,499.5C 532.167,497.167 534.167,495.167 536.5,493.5 Z"/></g>
<g><path style="opacity:0.412" fill="#454c50" d="M 526.5,504.5 C 522.643,511.531 517.81,517.865 512,523.5C 511.506,525.134 511.34,526.801 511.5,528.5C 516.249,528.197 520.916,527.363 525.5,526C 538.574,520.296 552.24,517.296 566.5,517C 567.894,517.956 568.561,519.289 568.5,521C 561.315,530.685 552.982,539.185 543.5,546.5C 540.903,547.889 538.57,549.722 536.5,552C 532.694,553.617 528.694,554.45 524.5,554.5C 514.05,557.947 503.383,560.78 492.5,563C 480.895,564.88 469.228,565.546 457.5,565C 449.268,561.301 441.768,556.468 435,550.5C 429.994,541.831 432.494,536.998 442.5,536C 441.552,535.517 440.552,535.351 439.5,535.5C 441.948,534.527 444.615,534.194 447.5,534.5C 446.652,536.093 445.319,537.26 443.5,538C 440.387,537.947 437.887,539.114 436,541.5C 435.973,547.269 438.473,551.769 443.5,555C 447.484,557.166 451.484,559.333 455.5,561.5C 483.733,563.351 510.733,558.684 536.5,547.5C 540.747,544.578 545.08,541.745 549.5,539C 554.145,532.887 559.145,527.054 564.5,521.5C 561.216,520.343 557.882,520.176 554.5,521C 540.951,525.18 527.285,529.18 513.5,533C 508.619,534.68 505.286,533.18 503.5,528.5C 506.217,524.116 509.884,520.782 514.5,518.5C 515.885,516.464 517.218,514.464 518.5,512.5C 520.833,509.5 523.5,506.833 526.5,504.5 Z"/></g>
<g><path style="opacity:0.192" fill="#282d30" d="M 438.5,535.5 C 438.833,535.5 439.167,535.5 439.5,535.5C 440.552,535.351 441.552,535.517 442.5,536C 432.494,536.998 429.994,541.831 435,550.5C 441.768,556.468 449.268,561.301 457.5,565C 469.228,565.546 480.895,564.88 492.5,563C 503.383,560.78 514.05,557.947 524.5,554.5C 520.17,556.346 515.836,558.346 511.5,560.5C 493.146,565.269 474.479,567.102 455.5,566C 446.69,562.095 438.69,556.928 431.5,550.5C 430.4,546.558 430.233,542.558 431,538.5C 433.567,537.413 436.067,536.413 438.5,535.5 Z"/></g>
</svg>
